<svg width="26" height="26" viewBox="0 0 26 26" fill="none" xmlns="http://www.w3.org/2000/svg">
<path fill-rule="evenodd" clip-rule="evenodd" d="M9.53547 0.0935319C9.41943 0.154855 9.30587 0.271709 9.24346 0.394101C9.14534 0.586555 9.14133 0.6902 9.14133 3.03714C9.14133 5.38505 9.14529 5.48767 9.24356 5.68038C9.35854 5.90581 9.65111 6.08551 9.90311 6.08551C10.1551 6.08551 10.4477 5.90581 10.5627 5.68038C10.6609 5.48767 10.6649 5.38505 10.6649 3.03714C10.6649 0.689234 10.6609 0.586606 10.5627 0.393898C10.3753 0.0264169 9.91652 -0.107711 9.53547 0.0935319ZM3.05935 2.78286C2.72417 2.9873 2.59924 3.41133 2.76886 3.7689C2.81137 3.85847 3.61692 4.70028 4.55904 5.63953C6.40645 7.48141 6.38314 7.46358 6.84071 7.38925C7.27056 7.31949 7.52956 6.80477 7.36095 6.35555C7.29234 6.1728 3.99258 2.86033 3.7773 2.75816C3.55435 2.65233 3.25655 2.66255 3.05935 2.78286ZM16.0227 2.7603C15.8514 2.84824 12.7674 5.89966 12.5388 6.20745C12.0836 6.82017 12.7182 7.62473 13.4421 7.35277C13.6247 7.28413 16.9358 3.983 17.038 3.76763C17.3461 3.11807 16.6573 2.43463 16.0227 2.7603ZM0.394144 9.23864C0.179729 9.35189 0 9.65165 0 9.89597C0 10.1481 0.179627 10.4408 0.404961 10.5558C0.597589 10.6541 0.700175 10.6581 3.04711 10.6581C5.39405 10.6581 5.49663 10.6541 5.68926 10.5558C5.91459 10.4408 6.09422 10.1481 6.09422 9.89597C6.09422 9.64387 5.91459 9.35118 5.68926 9.23615C5.49638 9.13774 5.39648 9.13398 3.03645 9.13612C0.695148 9.13825 0.575447 9.14293 0.394144 9.23864ZM9.76452 9.38608C9.54279 9.48678 9.37235 9.70413 9.31679 9.95709C9.29359 10.063 9.84288 11.7709 11.5021 16.7521C13.6118 23.0854 13.7268 23.4129 13.8919 23.5579C13.9873 23.6417 14.144 23.725 14.2402 23.743C14.6232 23.8149 14.6852 23.7706 15.9224 22.5417L17.0917 21.3803L19.3504 23.6413C21.7603 26.0537 21.7613 26.0546 22.1755 25.979C22.3476 25.9477 22.5816 25.7332 24.1371 24.1816C26.022 22.3014 26.0538 22.2612 25.9797 21.853C25.9482 21.6796 25.6879 21.4007 23.6637 19.3713L21.3831 17.085L22.5454 15.9165C23.5247 14.9319 23.7131 14.7186 23.7424 14.5614C23.7912 14.3001 23.7319 14.0829 23.5571 13.8837C23.4152 13.7221 23.0491 13.5935 16.7682 11.4996C13.1168 10.2823 10.0956 9.28681 10.0543 9.28742C10.0131 9.28803 9.88264 9.33243 9.76452 9.38608ZM21.5305 14.706C21.5432 14.7172 21.1398 15.1427 20.6341 15.6517C20.1284 16.1606 19.6781 16.6501 19.6335 16.7396C19.5396 16.9274 19.5296 17.1445 19.6054 17.3485C19.6347 17.4271 20.6745 18.509 21.9163 19.7527L24.174 22.0139L23.0944 23.0931L22.0147 24.1723L19.7805 21.9319C18.5215 20.6693 17.475 19.6604 17.3829 19.6203C17.1673 19.5264 16.9437 19.5303 16.7439 19.6314C16.6545 19.6766 16.1648 20.1268 15.6557 20.6318C15.1467 21.1368 14.7213 21.5399 14.7105 21.5276C14.6997 21.5152 13.9249 19.2046 12.9888 16.3927L11.2868 11.2802L16.3972 12.983C19.2079 13.9195 21.5179 14.6948 21.5305 14.706ZM6.22118 12.5278C5.87493 12.786 2.80217 15.9082 2.74534 16.0595C2.50427 16.7013 3.10054 17.2978 3.74211 17.0567C3.92478 16.9881 7.23587 13.687 7.338 13.4716C7.49036 13.1505 7.41535 12.7989 7.13943 12.5411C7.03923 12.4474 6.93604 12.4123 6.71563 12.3968C6.455 12.3785 6.40294 12.3922 6.22118 12.5278Z" fill="black"/>
</svg>
