<svg width="17" height="18" viewBox="0 0 17 18" fill="none" xmlns="http://www.w3.org/2000/svg">
<path fill-rule="evenodd" clip-rule="evenodd" d="M7.75619 0.622594C6.15841 0.793323 4.62553 1.56776 3.59889 2.72301C2.37261 4.10284 1.85624 5.90386 2.19017 7.63642C2.53814 9.44196 3.81131 11.5649 5.8786 13.7868C6.58443 14.5453 8.35114 16.1794 8.46549 16.1794C8.52744 16.1794 9.50425 15.3246 10.0828 14.7642C13.1636 11.7795 14.8427 8.90066 14.845 6.59923C14.8456 6.01091 14.726 5.31501 14.5218 4.719C14.3873 4.32624 14.0214 3.62622 13.7517 3.24584C12.447 1.4056 10.088 0.37346 7.75619 0.622594ZM9.46462 2.0238C10.4539 2.22016 11.2205 2.61633 11.9573 3.31197C12.4145 3.74358 12.6373 4.03062 12.9058 4.53418C13.2632 5.20441 13.408 5.80488 13.4058 6.6089C13.4042 7.24262 13.3399 7.59867 13.1089 8.25375C12.5154 9.93682 10.9449 12.0717 8.89104 13.9875L8.46052 14.3891L7.79822 13.752C6.74223 12.7363 5.94145 11.8208 5.20893 10.7918C4.34416 9.57712 3.8425 8.55107 3.60356 7.50839C3.49131 7.01839 3.49102 6.17562 3.603 5.68237C3.74765 5.04523 3.98921 4.50778 4.37833 3.95741C4.59388 3.65256 5.13818 3.1144 5.46587 2.8822C6.15593 2.39323 6.99028 2.06867 7.83431 1.96092C8.22314 1.9113 9.06047 1.94359 9.46462 2.0238ZM7.85331 3.31327C7.12065 3.44435 6.4799 3.76151 5.96424 4.24833C4.58062 5.55457 4.58076 7.66316 5.96459 8.96956C6.40777 9.38799 7.02491 9.71736 7.63425 9.86069C8.05843 9.96047 8.80909 9.9679 9.22717 9.87648C11.4754 9.38481 12.657 7.05316 11.6343 5.12634C11.1634 4.23903 10.3156 3.59758 9.29807 3.35871C8.9171 3.2693 8.22144 3.24742 7.85331 3.31327ZM8.97565 4.66719C9.37605 4.7639 9.64798 4.91245 9.95501 5.2023C10.262 5.49216 10.4194 5.74889 10.5218 6.12689C10.65 6.60013 10.5829 7.11546 10.3357 7.55638C10.1822 7.83014 9.75287 8.23621 9.4687 8.37636C8.99742 8.60876 8.45428 8.67124 7.95454 8.5506C7.55415 8.45389 7.28221 8.30535 6.97518 8.01549C6.66815 7.72563 6.51081 7.4689 6.40837 7.0909C6.28048 6.61877 6.34687 6.10541 6.59329 5.66142C6.74407 5.3897 7.17392 4.98399 7.46206 4.84147C7.93228 4.6089 8.47523 4.54639 8.97565 4.66719ZM2.74064 13.1391C1.98945 13.399 1.31499 13.7958 1.02845 14.1464C0.948269 14.2445 0.838317 14.4145 0.784121 14.5243C0.698059 14.6984 0.685547 14.7641 0.685547 15.0416C0.685547 15.3192 0.698059 15.3849 0.784121 15.559C1.12046 16.2397 1.91795 16.7294 3.32549 17.1196C5.35798 17.6831 8.37379 17.8652 11.0176 17.5841C14.2293 17.2426 16.134 16.3645 16.2508 15.1716C16.3321 14.3414 15.6084 13.629 14.1849 13.1379L13.8968 13.0385L13.6774 13.6752C13.5567 14.0254 13.463 14.3153 13.4693 14.3196C13.4755 14.3238 13.5843 14.362 13.711 14.4044C14.079 14.5276 14.5308 14.755 14.7035 14.904L14.863 15.0416L14.7111 15.1727C13.9112 15.863 11.2413 16.3789 8.4651 16.3797C5.70687 16.3804 3.01598 15.8604 2.21906 15.1727L2.06718 15.0416L2.22668 14.904C2.39941 14.755 2.8512 14.5276 3.21916 14.4044C3.34588 14.362 3.45473 14.3237 3.46107 14.3194C3.47107 14.3126 3.04764 13.0602 3.03066 13.0463C3.02711 13.0434 2.8966 13.0852 2.74064 13.1391Z" fill="#A9AAAE"/>
</svg>
