<svg width="17" height="15" viewBox="0 0 17 15" fill="none" xmlns="http://www.w3.org/2000/svg">
<path fill-rule="evenodd" clip-rule="evenodd" d="M5.98991 0.184194C4.61521 0.431924 3.53759 1.386 3.15937 2.69019C2.67921 4.34591 3.48959 6.09031 5.08254 6.82992C5.56595 7.05437 5.92406 7.12994 6.52338 7.13398C7.07705 7.1377 7.34862 7.09464 7.78074 6.93463C9.51226 6.29347 10.461 4.43935 9.95331 2.68871C9.60385 1.48362 8.63534 0.55482 7.40697 0.246743C7.10834 0.171836 6.26499 0.134596 5.98991 0.184194ZM10.8028 0.836142V1.52931L10.9604 1.54998C11.4478 1.61384 11.8387 1.76895 12.1424 2.01905C12.7546 2.52312 13.0374 3.31762 12.8762 4.08066C12.7142 4.84801 12.0642 5.51153 11.3004 5.68934C11.1818 5.71695 11.0213 5.73977 10.9438 5.74003L10.8028 5.74052V6.45173V7.16291L11.0886 7.13993C12.1503 7.05457 13.1492 6.47194 13.7387 5.59409C14.6516 4.23475 14.51 2.47244 13.3906 1.26208C12.8141 0.638766 11.9448 0.220152 11.1097 0.163684L10.8028 0.142944V0.836142ZM7.09984 1.61874C7.98118 1.84501 8.60973 2.6142 8.66851 3.53833C8.70659 4.13736 8.48701 4.69136 8.03635 5.13318C7.61092 5.55028 7.14904 5.73953 6.55655 5.73953C5.96407 5.73953 5.50219 5.55028 5.07676 5.13318C4.76722 4.8297 4.56598 4.47295 4.48315 4.08066C4.23448 2.90305 5.03944 1.75367 6.24296 1.56789C6.48583 1.53042 6.83701 1.55126 7.09984 1.61874ZM3.86677 8.60041C2.5638 8.81892 1.49185 9.72738 1.07475 10.9666C0.922617 11.4186 0.900391 11.6366 0.900391 12.6758C0.900391 13.6127 0.902845 13.65 0.973572 13.781C1.06447 13.9493 1.21382 14.0765 1.37461 14.1226C1.4603 14.1471 3.05069 14.1549 6.62834 14.1481L11.7592 14.1384L11.903 14.0384C11.9821 13.9833 12.0842 13.8724 12.1298 13.7919C12.211 13.6485 12.213 13.6286 12.2234 12.8401C12.2352 11.9436 12.2003 11.5306 12.0763 11.1016C11.7045 9.81609 10.6286 8.84844 9.30999 8.61379C9.11477 8.57905 8.5183 8.57011 6.53997 8.57224C5.1533 8.57372 3.95037 8.58641 3.86677 8.60041ZM12.362 9.25259V9.93793L12.8181 9.95732C13.3316 9.97915 13.5553 10.0282 13.88 10.1902C14.2955 10.3975 14.6241 10.7282 14.8313 11.1473C14.9887 11.4656 15.0491 11.7934 15.0491 12.3293V12.7744H14.3359H13.6226V13.4658V14.1572L14.8141 14.1478L16.0055 14.1384L16.1493 14.0384C16.2284 13.9833 16.3304 13.8724 16.3761 13.7919C16.4573 13.6485 16.4592 13.6286 16.4696 12.8401C16.4815 11.9436 16.4466 11.5306 16.3225 11.1016C15.9508 9.81609 14.8749 8.84844 13.5563 8.61379C13.4194 8.58943 13.0947 8.56899 12.8347 8.56837L12.362 8.56721V9.25259ZM9.21873 10.0225C9.82618 10.2002 10.3163 10.6037 10.585 11.1473C10.7424 11.4656 10.8028 11.7934 10.8028 12.3293V12.7744H6.55655H2.31028V12.3125C2.31028 11.7732 2.36383 11.4859 2.52747 11.1474C2.82342 10.5352 3.44029 10.0843 4.11983 9.98342C4.22844 9.96728 5.37722 9.95693 6.67266 9.96041C8.77891 9.9661 9.04819 9.97264 9.21873 10.0225Z" fill="#A9AAAE"/>
</svg>
