<svg width="16" height="14" viewBox="0 0 16 14" fill="none" xmlns="http://www.w3.org/2000/svg">
<path fill-rule="evenodd" clip-rule="evenodd" d="M1.90051 0.175059C1.69612 0.233739 1.49816 0.517139 1.49871 0.750252C1.49926 0.993331 1.5243 1.0239 2.61869 2.11754L3.67212 3.17026L2.61869 4.22298C1.73407 5.10702 1.55993 5.29511 1.53206 5.39687C1.5138 5.46352 1.4988 5.75319 1.49871 6.04062L1.49853 6.56319L1.12579 6.56386C0.830157 6.56437 0.727616 6.57604 0.630096 6.62014C0.481092 6.68752 0.355396 6.82969 0.310941 6.9811C0.288486 7.05765 0.28097 7.65662 0.28733 8.86554L0.29664 10.6377L0.368845 10.7534C0.408553 10.817 0.496549 10.9056 0.564403 10.9503L0.687756 11.0316L5.63445 11.0407C9.09239 11.0471 10.6819 11.0398 10.9159 11.0164C11.5913 10.9487 12.1387 10.7932 12.7719 10.4891C14.4877 9.66512 15.6257 8.04148 15.8316 6.12393C15.8993 5.49351 15.8355 5.24195 15.5657 5.07494C15.4558 5.00693 15.4183 5.00253 14.8714 4.99354L14.2933 4.98405L13.1066 3.80737C12.1054 2.81461 11.9009 2.62551 11.7982 2.5977C11.7214 2.57689 11.2842 2.56465 10.6124 2.56456L9.54835 2.56438L8.36079 1.38576C7.35839 0.390874 7.15428 0.202021 7.05155 0.174181C6.89583 0.131981 2.04765 0.132799 1.90051 0.175059ZM7.20369 1.9585L7.81166 2.56438H6.3055H4.79934L4.19137 1.9585L3.58339 1.35262H5.08956H6.59572L7.20369 1.9585ZM11.9504 4.38202L12.5584 4.9879L11.4937 4.98808C10.815 4.98817 10.3849 5.00029 10.3073 5.0215C10.207 5.04894 10.0517 5.1873 9.42359 5.80899L8.66163 6.56319H5.68861H2.71563V6.20739V5.85161L3.75762 4.81386L4.79958 3.77614H8.071H11.3424L11.9504 4.38202ZM14.5824 6.27152C14.5824 6.3986 14.4374 6.917 14.3253 7.19091C14.0982 7.74596 13.7631 8.22867 13.2997 8.66863C12.7211 9.21801 12.0673 9.56157 11.2414 9.75031L10.9463 9.81774L6.2224 9.82707L1.49853 9.83643V8.80613V7.77586L5.29436 7.76783L9.0902 7.75981L9.21191 7.69373C9.27885 7.65738 9.65527 7.30636 10.0484 6.91366L10.7632 6.19966H12.6728H14.5824V6.27152Z" fill="#A9AAAE"/>
<rect x="0.285156" y="12.6001" width="15.5714" height="1.24571" fill="#A9AAAE"/>
</svg>
