<svg width="18" height="16" viewBox="0 0 18 16" fill="none" xmlns="http://www.w3.org/2000/svg">
<path fill-rule="evenodd" clip-rule="evenodd" d="M8.74463 0.442504C8.65983 0.487807 8.54784 0.579107 8.49571 0.645407C8.44362 0.711706 7.93487 1.71393 7.36513 2.8726C6.79543 4.03127 6.31594 4.99337 6.29958 5.01057C6.2832 5.02781 5.16939 5.20205 3.82438 5.39778C1.44091 5.74467 1.37529 5.75627 1.23373 5.85551C0.93366 6.06589 0.826896 6.47668 0.990807 6.78996C1.03607 6.87646 1.72571 7.57382 2.81075 8.63026C3.77163 9.56583 4.55778 10.3541 4.55778 10.382C4.55778 10.4099 4.37734 11.4821 4.15681 12.7648C3.93627 14.0474 3.75618 15.1551 3.7566 15.2264C3.75824 15.5018 3.98749 15.8054 4.26232 15.896C4.57068 15.9976 4.59983 15.9854 6.75321 14.8525C7.85523 14.2727 8.83588 13.7598 8.93243 13.7128L9.10798 13.6274L10.9734 14.6087C13.6173 15.9995 13.4765 15.9305 13.6694 15.9305C14.0715 15.9305 14.4222 15.6052 14.4245 15.2302C14.4249 15.161 14.2448 14.0543 14.0243 12.7708C13.8038 11.4873 13.6233 10.4128 13.6233 10.3831C13.6233 10.3534 14.4093 9.56409 15.3699 8.62914C16.4691 7.55919 17.1431 6.87764 17.1885 6.78996C17.3859 6.40853 17.179 5.89837 16.7716 5.76253C16.718 5.74464 15.6308 5.58059 14.3555 5.39799C13.0803 5.21539 11.9993 5.05431 11.9534 5.04003C11.8847 5.01869 11.6753 4.62361 10.7679 2.80295C9.71928 0.698996 9.65861 0.586803 9.51618 0.488398C9.30533 0.342742 8.96876 0.32272 8.74463 0.442504ZM9.92737 4.43139C10.4173 5.42463 10.7932 6.14428 10.8623 6.22151C10.9258 6.29251 11.0435 6.37451 11.1238 6.40369C11.2041 6.43287 12.0464 6.56707 12.9957 6.70194C13.945 6.83676 14.7664 6.95874 14.8211 6.97298C14.9175 6.99809 14.8798 7.03838 13.5787 8.30005C12.8407 9.01565 12.2057 9.6581 12.1676 9.72771C12.1295 9.79728 12.0885 9.90665 12.0765 9.97076C12.0622 10.0471 12.1643 10.7246 12.372 11.9316C12.5465 12.9459 12.6811 13.784 12.671 13.794C12.661 13.8041 11.918 13.4263 11.02 12.9546C10.122 12.4829 9.32043 12.0801 9.2387 12.0595C9.13643 12.0338 9.04683 12.0331 8.95115 12.0574C8.87468 12.0768 8.0735 12.4798 7.17071 12.9529C6.26792 13.4261 5.52106 13.805 5.51102 13.795C5.50098 13.785 5.63616 12.9429 5.81148 11.9237C6.02145 10.7027 6.12218 10.0336 6.1068 9.96237C6.09394 9.90289 6.05558 9.79937 6.02152 9.73234C5.98745 9.66531 5.35367 9.02286 4.61308 8.30468C3.32048 7.05119 3.27041 6.99784 3.36301 6.97316C3.41605 6.95898 4.23613 6.83701 5.1854 6.70211C6.13466 6.56721 6.97772 6.43266 7.05889 6.40314C7.14906 6.3703 7.2575 6.28962 7.33783 6.19553C7.42218 6.09675 7.75638 5.45593 8.27116 4.40601C8.71224 3.50641 9.08096 2.77036 9.09055 2.7704C9.10014 2.7704 9.47671 3.51786 9.92737 4.43139Z" fill="#A9AAAE"/>
</svg>
